<svg xmlns="http://www.w3.org/2000/svg" viewBox="0 0 100 100" width="100%" height="100%" role="img" aria-label="LensImpact Film Club Sign">
  <!-- OnePlus Red Rounded Square Base -->
  <rect x="10" y="10" width="80" height="80" rx="18" fill="#EB0029" />

  <!-- Cinema Clapper Slanted Stripes (Top Edge) -->
  <path d="M 22 20 L 32 20 L 26 30 L 22 30 Z" fill="#FFFFFF" />
  <path d="M 40 20 L 50 20 L 44 30 L 34 30 Z" fill="#FFFFFF" />
  <path d="M 58 20 L 68 20 L 62 30 L 52 30 Z" fill="#FFFFFF" />
  <path d="M 76 20 L 78 20 L 78 24 L 72 30 L 70 30 Z" fill="#FFFFFF" />

  <!-- Film Frame Divider Line -->
  <line x1="18" y1="33" x2="82" y2="33" stroke="#EB0029" stroke-width="2" />

  <!-- Play Symbol (Movie Element) -->
  <polygon points="42,44 42,72 66,58" fill="#FFFFFF" />

  <!-- Floating OnePlus '+' Badge -->
  <circle cx="82" cy="18" r="11" fill="#FFFFFF" />
  <path d="M 82 12 L 82 24 M 76 18 L 88 18" stroke="#EB0029" stroke-width="3" stroke-linecap="round" />
</svg>
